<?xml version="1.0" encoding="UTF-8"?>
<svg version="1.1" xmlns="http://www.w3.org/2000/svg" width="500" height="500">
<path d="M0 0 C1.08539063 -0.00773437 2.17078125 -0.01546875 3.2890625 -0.0234375 C26.97946848 0.03310285 49.5378503 9.18482227 67 25.25 C67 25.91 67 26.57 67 27.25 C67.66 27.25 68.32 27.25 69 27.25 C69 27.91 69 28.57 69 29.25 C69.66 29.25 70.32 29.25 71 29.25 C72.87804782 31.3993214 74.63641155 33.55462263 76.375 35.8125 C77.09816406 36.72612305 77.09816406 36.72612305 77.8359375 37.65820312 C86 48.14059316 86 48.14059316 86 53.25 C86.66 53.25 87.32 53.25 88 53.25 C94.62221494 68.35893699 97.24757761 81.7668043 97.375 98.3125 C97.38901855 99.56683838 97.40303711 100.82117676 97.41748047 102.11352539 C97.29803801 125.53496724 88.28430463 149.76085863 76.8203125 170.015625 C75.50948126 172.34474144 74.26191777 174.66571737 73.0546875 177.046875 C63.23413723 196.33220871 50.93859925 214.06447891 38.30078125 231.5859375 C35.96962695 234.80573451 35.96962695 234.80573451 34 238.25 C33.34 238.25 32.68 238.25 32 238.25 C31.64421875 239.31347656 31.64421875 239.31347656 31.28125 240.3984375 C29.7834693 243.73191284 27.86184979 246.09139132 25.5 248.875 C23.18155004 251.62251375 20.99502675 254.25745988 19 257.25 C18.34 257.25 17.68 257.25 17 257.25 C16.75894531 257.97316406 16.51789063 258.69632812 16.26953125 259.44140625 C14.82605919 262.63481058 13.08327069 264.63872211 10.6875 267.1875 C7.34214343 270.79724766 4.11041819 274.43722932 1 278.25 C-7.25093765 274.84159912 -14.12866651 264.5178416 -19 257.25 C-19 256.59 -19 255.93 -19 255.25 C-19.66 255.25 -20.32 255.25 -21 255.25 C-22.23681641 253.90478516 -22.23681641 253.90478516 -23.6015625 252.0390625 C-24.09140625 251.37132812 -24.58125 250.70359375 -25.0859375 250.015625 C-25.59382813 249.30921875 -26.10171875 248.6028125 -26.625 247.875 C-27.3984375 246.82699219 -27.3984375 246.82699219 -28.1875 245.7578125 C-32 240.51310351 -32 240.51310351 -32 238.25 C-32.66 238.25 -33.32 238.25 -34 238.25 C-35.48046875 236.4140625 -35.48046875 236.4140625 -37.1875 233.875 C-37.81398437 232.95332031 -38.44046875 232.03164063 -39.0859375 231.08203125 C-39.71757812 230.14746094 -40.34921875 229.21289062 -41 228.25 C-42.1015208 226.68563361 -43.2056527 225.12310223 -44.3125 223.5625 C-51.93702721 212.64595098 -59.20912485 201.56323515 -65.93408203 190.06884766 C-66.96756937 188.30533857 -68.01255479 186.54905234 -69.05859375 184.79296875 C-84.74305055 158.04072762 -97.39227592 128.74289323 -97.3125 97.375 C-97.32861328 96.11558594 -97.34472656 94.85617188 -97.36132812 93.55859375 C-97.36737337 81.79454225 -95.53220561 70.68953532 -90.8125 59.875 C-90.53986328 59.22273438 -90.26722656 58.57046875 -89.98632812 57.8984375 C-89.33500149 56.34439499 -88.66924492 54.7964106 -88 53.25 C-87.34 53.25 -86.68 53.25 -86 53.25 C-85.92265625 52.55777344 -85.8453125 51.86554688 -85.765625 51.15234375 C-84.80198256 47.49935227 -82.93076366 44.82957594 -80.75 41.8125 C-80.36714844 41.26529297 -79.98429687 40.71808594 -79.58984375 40.15429688 C-76.90432488 36.35954195 -74.10908016 32.70859085 -71 29.25 C-70.34 29.25 -69.68 29.25 -69 29.25 C-69 28.59 -69 27.93 -69 27.25 C-68.34 27.25 -67.68 27.25 -67 27.25 C-67 26.59 -67 25.93 -67 25.25 C-48.39243895 8.13104384 -25.08245714 -0.17873485 0 0 Z M-24 73.25 C-24 73.91 -24 74.57 -24 75.25 C-24.66 75.25 -25.32 75.25 -26 75.25 C-27.30078949 76.83011846 -27.30078949 76.83011846 -28.5 78.875 C-28.9228125 79.54789063 -29.345625 80.22078125 -29.78125 80.9140625 C-32.67424238 86.45896456 -33.38797504 91.41916128 -33.375 97.5625 C-33.37411377 98.3143457 -33.37322754 99.06619141 -33.37231445 99.84082031 C-33.24690701 105.7254215 -32.137309 110.20991875 -29 115.25 C-28.46375 116.260625 -27.9275 117.27125 -27.375 118.3125 C-26.694375 119.2715625 -26.694375 119.2715625 -26 120.25 C-25.34 120.25 -24.68 120.25 -24 120.25 C-24 120.91 -24 121.57 -24 122.25 C-15.52986614 129.2888381 -7.55894769 131.89161578 3.37890625 131.6796875 C10.26453168 130.86262299 16.27017073 128.06988618 22 124.25 C22 123.59 22 122.93 22 122.25 C22.66 122.25 23.32 122.25 24 122.25 C24 121.59 24 120.93 24 120.25 C24.66 120.25 25.32 120.25 26 120.25 C26 119.59 26 118.93 26 118.25 C26.66 118.25 27.32 118.25 28 118.25 C33.65703626 109.07751978 34.35161086 99.74168661 33 89.25 C32.09136065 85.8845057 30.86194147 83.18070932 29 80.25 C28.46375 79.239375 27.9275 78.22875 27.375 77.1875 C26.92125 76.548125 26.4675 75.90875 26 75.25 C25.34 75.25 24.68 75.25 24 75.25 C24 74.59 24 73.93 24 73.25 C17.07687763 66.47779038 9.56100089 64.13151791 0.0625 63.8125 C-9.47584791 64.03862463 -16.70159771 67.22088506 -24 73.25 Z " fill="#820202" transform="translate(250,110.75)"/>
<path d="M0 0 C4.28144006 2.85429338 4.32234954 5.89718166 5.4296875 10.7578125 C7.22802886 20.98125997 5.18066797 28.00570075 0.4140625 37.046875 C-1.18015911 39.24883855 -2.50343423 40.00137369 -5 41 C-5 41.66 -5 42.32 -5 43 C-5.99 43 -6.98 43 -8 43 C-8 42.34 -8 41.68 -8 41 C-7.34 41 -6.68 41 -6 41 C-6 40.34 -6 39.68 -6 39 C-5.34 39 -4.68 39 -4 39 C-4 38.34 -4 37.68 -4 37 C-3.34 37 -2.68 37 -2 37 C-1.79503906 36.37351563 -1.59007812 35.74703125 -1.37890625 35.1015625 C-1.10949219 34.28429687 -0.84007812 33.46703125 -0.5625 32.625 C-0.16224609 31.40683594 -0.16224609 31.40683594 0.24609375 30.1640625 C1 28 1 28 2 26 C2.12587877 23.11357054 2.18519063 20.26171851 2.1875 17.375 C2.19974609 16.59253906 2.21199219 15.81007812 2.22460938 15.00390625 C2.23787059 9.67289833 1.48276436 5.12227689 0 0 Z " fill="#B67878" transform="translate(280,192)"/>
<path d="M0 0 C-0.99 0.99 -1.98 1.98 -3 3 C0.16666667 1.16666667 0.16666667 1.16666667 2 -2 C2.61875 -1.814375 3.2375 -1.62875 3.875 -1.4375 C6.04160178 -0.76313824 6.04160178 -0.76313824 8 -2 C6.55575365 1.23861303 4.74227753 3.61969163 2.375 6.25 C1.74335938 6.95640625 1.11171875 7.6628125 0.4609375 8.390625 C-0.02117187 8.92171875 -0.50328125 9.4528125 -1 10 C-4.44428265 8.55218207 -6.36130962 6.72305391 -8.75 3.875 C-9.36359375 3.15054687 -9.9771875 2.42609375 -10.609375 1.6796875 C-11.06828125 1.12539063 -11.5271875 0.57109375 -12 0 C-10 -1 -10 -1 -7 -1 C-6.34 -1.20625 -5.68 -1.4125 -5 -1.625 C-3 -2 -3 -2 0 0 Z " fill="#953233" transform="translate(252,379)"/>
<path d="M0 0 C-0.59167969 0.18175781 -1.18335938 0.36351563 -1.79296875 0.55078125 C-6.2575258 1.97099108 -9.99098064 3.55004373 -14 6 C-16.8125 6.6875 -16.8125 6.6875 -19 7 C-19 7.99 -19 8.98 -19 10 C-21.9615696 11.4807848 -24.83506295 11.35314037 -28.125 11.5625 C-29.40632812 11.64628906 -30.68765625 11.73007813 -32.0078125 11.81640625 C-32.99523437 11.87699219 -33.98265625 11.93757813 -35 12 C-28.21446433 4.52073544 -9.90378814 -3.42823436 0 0 Z " fill="#8F2B2C" transform="translate(235,113)"/>
<path d="M0 0 C0.66 0.33 1.32 0.66 2 1 C0.55579129 3.86285621 -0.91669924 6.55130355 -3 9 C-4.99956611 9.04165763 -7.00043389 9.04165763 -9 9 C-10.58761575 10.70537846 -11.73141703 12.46878062 -12.921875 14.46875 C-13.27765625 14.9740625 -13.6334375 15.479375 -14 16 C-14.66 16 -15.32 16 -16 16 C-16.185625 16.5775 -16.37125 17.155 -16.5625 17.75 C-18.70551122 21.10427843 -21.48822563 22.17907996 -25 24 C-23.4722133 20.56247993 -21.49818944 17.81046312 -19 15 C-18.34 15 -17.68 15 -17 15 C-17 14.34 -17 13.68 -17 13 C-16.34 13 -15.68 13 -15 13 C-15 12.34 -15 11.68 -15 11 C-12.90902882 9.23003707 -10.81730861 7.57248121 -8.625 5.9375 C-8.02171875 5.47794922 -7.4184375 5.01839844 -6.796875 4.54492188 C-2.33005276 1.16502638 -2.33005276 1.16502638 0 0 Z " fill="#A85D5E" transform="translate(198,125)"/>
<path d="M0 0 C0.99 0 1.98 0 3 0 C3.2475 0.804375 3.495 1.60875 3.75 2.4375 C4.72238859 5.171081 4.72238859 5.171081 7.125 5.8125 C8.053125 5.9053125 8.053125 5.9053125 9 6 C9.12375 6.969375 9.2475 7.93875 9.375 8.9375 C9.58125 9.948125 9.7875 10.95875 10 12 C10.66 12.33 11.32 12.66 12 13 C13.33333333 13.66666667 14.66666667 14.33333333 16 15 C16 16.32 16 17.64 16 19 C16.99 19.33 17.98 19.66 19 20 C19 21.65 19 23.3 19 25 C14.125 20.375 14.125 20.375 13 17 C12.34 17 11.68 17 11 17 C9.76318359 15.65478516 9.76318359 15.65478516 8.3984375 13.7890625 C7.90859375 13.12132812 7.41875 12.45359375 6.9140625 11.765625 C6.40617188 11.05921875 5.89828125 10.3528125 5.375 9.625 C4.6015625 8.57699219 4.6015625 8.57699219 3.8125 7.5078125 C0 2.26310351 0 2.26310351 0 0 Z " fill="#A05052" transform="translate(218,349)"/>
<path d="M0 0 C4.6875 3.61328125 4.6875 3.61328125 6 5 C6 5.99 6 6.98 6 8 C7.98 7.67 9.96 7.34 12 7 C12.33 8.65 12.66 10.3 13 12 C12.34 12 11.68 12 11 12 C11.99 13.98 12.98 15.96 14 18 C13.01 18 12.02 18 11 18 C9.0625 15.76953125 9.0625 15.76953125 7 12.8125 C6.319375 11.84957031 5.63875 10.88664062 4.9375 9.89453125 C0 2.51814516 0 2.51814516 0 0 Z " fill="#953133" transform="translate(194,315)"/>
<path d="M0 0 C0.99 0 1.98 0 3 0 C2.71125 0.70125 2.4225 1.4025 2.125 2.125 C1.75375 3.07375 1.3825 4.0225 1 5 C0.47599609 6.31097656 0.47599609 6.31097656 -0.05859375 7.6484375 C-1.19971477 11.71101773 -1.25748434 15.30830639 -1.1875 19.5 C-1.1865332 20.60021484 -1.1865332 20.60021484 -1.18554688 21.72265625 C-1.15178906 25.91612759 -0.81670042 29.87076265 0 34 C-0.99 34 -1.98 34 -3 34 C-4.31277224 28.22968021 -3.93149598 22.67040442 -3.625 16.8125 C-3.58117187 15.81541016 -3.53734375 14.81832031 -3.4921875 13.79101562 C-3.13335512 6.40006536 -3.13335512 6.40006536 -2 3 C-1.34 3 -0.68 3 0 3 C0 2.01 0 1.02 0 0 Z " fill="#D0A6A3" transform="translate(219,189)"/>
<path d="M0 0 C2 2 2 2 2.125 5.125 C2.08375 6.07375 2.0425 7.0225 2 8 C1.34 8 0.68 8 0 8 C-0.33 8.99 -0.66 9.98 -1 11 C-1.66 11 -2.32 11 -3 11 C-3 12.98 -3 14.96 -3 17 C-3.66 17 -4.32 17 -5 17 C-5.33 17.66 -5.66 18.32 -6 19 C-4.91081033 12.13523882 -3.09761199 6.22529789 0 0 Z " fill="#B16B6B" transform="translate(161,167)"/>
<path d="M0 0 C0.99 0.33 1.98 0.66 3 1 C1.57497833 4.90455937 -0.26652127 8.24835962 -2.5 11.75 C-3.1084375 12.71421875 -3.716875 13.6784375 -4.34375 14.671875 C-6 17 -6 17 -8 18 C-7.60350587 16.20376144 -7.18206548 14.41301565 -6.75 12.625 C-6.51796875 11.62726563 -6.2859375 10.62953125 -6.046875 9.6015625 C-5 7 -5 7 -2.9375 5.8125 C-2.298125 5.544375 -1.65875 5.27625 -1 5 C-0.18828772 2.44480079 -0.18828772 2.44480079 0 0 Z " fill="#A45D5D" transform="translate(306,309)"/>
<path d="M0 0 C0.33 0.99 0.66 1.98 1 3 C1.99 3.33 2.98 3.66 4 4 C4.71706982 5.98248715 5.38290413 7.98415349 6 10 C6.66 10.66 7.32 11.32 8 12 C8.39764263 13.98821313 8.73775349 15.98944339 9 18 C9.99 18.33 10.98 18.66 12 19 C11.34 19.66 10.68 20.32 10 21 C6.87794085 16.46174908 3.8431568 11.88179773 1.0625 7.125 C0.64097656 6.40570313 0.21945313 5.68640625 -0.21484375 4.9453125 C-1 3 -1 3 0 0 Z " fill="#B0706F" transform="translate(180,289)"/>
<path d="M0 0 C0.75925781 0.34933594 1.51851562 0.69867188 2.30078125 1.05859375 C3.29464844 1.51363281 4.28851563 1.96867188 5.3125 2.4375 C6.79169922 3.11619141 6.79169922 3.11619141 8.30078125 3.80859375 C11.69837818 5.30825665 14.32574715 6.12537032 18.01171875 6.09765625 C18.76904297 6.09443359 19.52636719 6.09121094 20.30664062 6.08789062 C21.09232422 6.07951172 21.87800781 6.07113281 22.6875 6.0625 C23.88342773 6.05573242 23.88342773 6.05573242 25.10351562 6.04882812 C27.06904257 6.0370585 29.03453085 6.01912348 31 6 C30.67 6.66 30.34 7.32 30 8 C27.22949974 8.1946838 24.45886998 8.38102792 21.6875 8.5625 C20.90181641 8.61857422 20.11613281 8.67464844 19.30664062 8.73242188 C18.1706543 8.80493164 18.1706543 8.80493164 17.01171875 8.87890625 C16.31522217 8.9260376 15.61872559 8.97316895 14.90112305 9.02172852 C13 9 13 9 10 8 C10 7.34 10 6.68 10 6 C6.7 5.67 3.4 5.34 0 5 C0 3.35 0 1.7 0 0 Z " fill="#C48889" transform="translate(229,235)"/>
<path d="M0 0 C0 6.87011447 -5.36523395 13.39888511 -9 19 C-9.66 17.68 -10.32 16.36 -11 15 C-10.525625 14.67 -10.05125 14.34 -9.5625 14 C-7.14208385 10.90186733 -7.31801083 7.87973208 -7 4 C-6.34 4 -5.68 4 -5 4 C-4.67 4.66 -4.34 5.32 -4 6 C-3.8453125 5.071875 -3.8453125 5.071875 -3.6875 4.125 C-3 2 -3 2 0 0 Z " fill="#B36D6D" transform="translate(320,290)"/>
<path d="M0 0 C8.44292793 0.29939461 16.23665439 1.5071535 24 5 C24.33 5.66 24.66 6.32 25 7 C20.71 6.34 16.42 5.68 12 5 C12 4.34 12 3.68 12 3 C6.06 2.01 6.06 2.01 0 1 C0 0.67 0 0.34 0 0 Z " fill="#C99392" transform="translate(263,112)"/>
<path d="M0 0 C1.28282164 3.84846491 0.48702089 5.28244777 -1 9 C-3.46428571 13.82142857 -3.46428571 13.82142857 -7 15 C-7 15.66 -7 16.32 -7 17 C-7.99 17 -8.98 17 -10 17 C-10 16.34 -10 15.68 -10 15 C-9.34 15 -8.68 15 -8 15 C-8 14.34 -8 13.68 -8 13 C-7.34 13 -6.68 13 -6 13 C-6 12.34 -6 11.68 -6 11 C-5.34 11 -4.68 11 -4 11 C-3.79503906 10.37351563 -3.59007812 9.74703125 -3.37890625 9.1015625 C-3.10949219 8.28429687 -2.84007812 7.46703125 -2.5625 6.625 C-2.29566406 5.81289062 -2.02882813 5.00078125 -1.75390625 4.1640625 C-1 2 -1 2 0 0 Z " fill="#C08483" transform="translate(282,218)"/>
<path d="M0 0 C1.6875 0.1875 1.6875 0.1875 4 1 C5.155 1.391875 6.31 1.78375 7.5 2.1875 C11.69203781 4.35837672 12.75891388 5.96604499 15 10 C12.45331883 8.77759304 10.06020663 7.44308541 7.625 6 C4.52627641 4.20635438 1.44620491 3.00864534 -2 2 C-1.34 1.34 -0.68 0.68 0 0 Z " fill="#B97E7D" transform="translate(259,174)"/>
<path d="M0 0 C-0.9375 1.9375 -0.9375 1.9375 -3 4 C-5.9858081 4.66174825 -8.94861869 4.87205948 -12 5 C-8.57151237 1.36743573 -5.0640084 -1.6880028 0 0 Z " fill="#B06769" transform="translate(212,120)"/>
<path d="M0 0 C2.4375 1.25 2.4375 1.25 5 3 C5.5625 4.9375 5.5625 4.9375 6 7 C6.66 7.66 7.32 8.32 8 9 C10.0819403 11.0819403 10.59208304 12.14458129 11 15 C10.34 15 9.68 15 9 15 C7.34375 12.98828125 7.34375 12.98828125 5.5 10.3125 C4.8915625 9.44238281 4.283125 8.57226562 3.65625 7.67578125 C2.10269515 5.1659108 0.99834825 2.77041639 0 0 Z " fill="#C28D8D" transform="translate(207,334)"/>
<path d="M0 0 C2.72426311 2.35277269 3.8141763 4.62496331 5 8 C5.66 8 6.32 8 7 8 C7 8.66 7 9.32 7 10 C7.99 10.33 8.98 10.66 10 11 C9.01 11.495 9.01 11.495 8 12 C5.4375 10.75 5.4375 10.75 3 9 C2.67 8.01 2.34 7.02 2 6 C1.34 6 0.68 6 0 6 C0 4.02 0 2.04 0 0 Z " fill="#B77B7A" transform="translate(219,223)"/>
<path d="M0 0 C4.6875 3.61328125 4.6875 3.61328125 6 5 C6 5.99 6 6.98 6 8 C6.99 8 7.98 8 9 8 C9 9.98 9 11.96 9 14 C5.15237434 10.5798883 2.39365978 6.53225744 0 2 C0 1.34 0 0.68 0 0 Z " fill="#C38A8B" transform="translate(194,315)"/>
<path d="M0 0 C1.65 0 3.3 0 5 0 C2.11912454 2.40072955 -0.56404834 4.47291037 -4 6 C-4 6.66 -4 7.32 -4 8 C-4.66 8 -5.32 8 -6 8 C-6.33 8.99 -6.66 9.98 -7 11 C-7.66 9.68 -8.32 8.36 -9 7 C-7.1625556 5.77503707 -5.29237027 4.59564016 -3.375 3.5 C-0.8942773 2.21973738 -0.8942773 2.21973738 0 0 Z " fill="#C28B8C" transform="translate(230,178)"/>
<path d="M0 0 C0.33 0.66 0.66 1.32 1 2 C-1.31 4.97 -3.62 7.94 -6 11 C-6.92538169 7.29847322 -7.08174162 6.36541838 -6 3 C-4.68 3 -3.36 3 -2 3 C-1.34 2.01 -0.68 1.02 0 0 Z " fill="#B46E70" transform="translate(297,327)"/>
<path d="M0 0 C0.66 0 1.32 0 2 0 C2.309375 0.78375 2.61875 1.5675 2.9375 2.375 C3.92875038 4.92330128 3.92875038 4.92330128 5 7 C4.67 7.99 4.34 8.98 4 10 C4.66 10.33 5.32 10.66 6 11 C6 12.65 6 14.3 6 16 C3.77304595 13.77304595 3.03967825 12.032382 1.875 9.125 C1.52179688 8.26132813 1.16859375 7.39765625 0.8046875 6.5078125 C0 4 0 4 0 0 Z " fill="#B87B7C" transform="translate(160,247)"/>
<path d="M0 0 C0.66 0 1.32 0 2 0 C1.48914188 6.43681228 0.27057103 11.95942424 -2 18 C-2.33 18 -2.66 18 -3 18 C-3.18701033 13.88577283 -2.8079352 11.61587039 -1 8 C-0.53203936 5.33622408 -0.26945941 2.69459414 0 0 Z " fill="#C99998" transform="translate(342,233)"/>
<path d="M0 0 C3.2626876 3.08632611 6.02235218 5.93483504 8 10 C7.67 10.66 7.34 11.32 7 12 C2.5991297 8.17819158 1.19194469 5.52628901 0 0 Z " fill="#B67478" transform="translate(327,149)"/>
<path d="M0 0 C4.75481646 0.57634139 7.97048212 2.55068521 12 5 C10.68 5.33 9.36 5.66 8 6 C7.67 5.34 7.34 4.68 7 4 C5.35 4 3.7 4 2 4 C1.34 2.68 0.68 1.36 0 0 Z " fill="#B77A78" transform="translate(288,119)"/>
<path d="M0 0 C-2 2 -2 2 -4.8203125 2.1953125 C-5.91085938 2.17210938 -7.00140625 2.14890625 -8.125 2.125 C-9.22070312 2.10695313 -10.31640625 2.08890625 -11.4453125 2.0703125 C-12.28835937 2.04710938 -13.13140625 2.02390625 -14 2 C-14 1.67 -14 1.34 -14 1 C-8.83955235 -0.512545 -5.34001821 -1.33500455 0 0 Z " fill="#821C1E" transform="translate(241,113)"/>
<path d="M0 0 C0.66 0 1.32 0 2 0 C2 1.32 2 2.64 2 4 C2.99 4.33 3.98 4.66 5 5 C5 6.65 5 8.3 5 10 C1.32769295 6.92000054 0.43197635 4.7517398 0 0 Z " fill="#984446" transform="translate(232,364)"/>
<path d="M0 0 C0.33 0.66 0.66 1.32 1 2 C1.66 2 2.32 2 3 2 C1.56375905 6.30872286 0.45397435 7.54602565 -3 11 C-2.01 7.37 -1.02 3.74 0 0 Z " fill="#B57170" transform="translate(301,316)"/>
<path d="M0 0 C0.99 0 1.98 0 3 0 C4.25664978 2.90600261 5 4.79604584 5 8 C5.99 8.33 6.98 8.66 8 9 C7.34 9.66 6.68 10.32 6 11 C4.9944239 9.54550599 3.99569565 8.08627557 3 6.625 C2.443125 5.81289063 1.88625 5.00078125 1.3125 4.1640625 C0 2 0 2 0 0 Z " fill="#BD8383" transform="translate(184,299)"/>
<path d="M0 0 C0.66 0.33 1.32 0.66 2 1 C1.67 1.99 1.34 2.98 1 4 C-3.09724467 5.54613006 -5.81857651 6.29227216 -10 5 C-8.38007835 4.13624104 -6.75388139 3.28424146 -5.125 2.4375 C-4.22007812 1.96183594 -3.31515625 1.48617187 -2.3828125 0.99609375 C-1.20332031 0.50302734 -1.20332031 0.50302734 0 0 Z " fill="#C28C8C" transform="translate(270,235)"/>
<path d="M0 0 C-5.52760359 2.10575375 -10.06997733 3.37851209 -16 3 C-11.08294543 0.13171817 -5.53605896 -1.7423757 0 0 Z " fill="#E1BFBD" transform="translate(235,113)"/>
<path d="M0 0 C0.66 0 1.32 0 2 0 C2 0.66 2 1.32 2 2 C2.66 2 3.32 2 4 2 C4 2.66 4 3.32 4 4 C4.66 4 5.32 4 6 4 C5.67 4.66 5.34 5.32 5 6 C3.68 5.67 2.36 5.34 1 5 C0.67 5.66 0.34 6.32 0 7 C0 4.69 0 2.38 0 0 Z " fill="#B26769" transform="translate(315,136)"/>
<path d="M0 0 C0 3 0 3 -1.5 4.6875 C-1.995 5.120625 -2.49 5.55375 -3 6 C-4.32 5.34 -5.64 4.68 -7 4 C-4.77810176 1.77810176 -2.91517292 1.07401108 0 0 Z " fill="#C08988" transform="translate(254,383)"/>
<path d="M0 0 C3.80666984 1.44390925 5.26602582 3.34952803 7 7 C6.67 7.66 6.34 8.32 6 9 C5.67 8.01 5.34 7.02 5 6 C4.34 6 3.68 6 3 6 C0 2.53846154 0 2.53846154 0 0 Z " fill="#C48787" transform="translate(226,360)"/>
<path d="M0 0 C0 3 0 3 -2.5 5.6875 C-3.325 6.450625 -4.15 7.21375 -5 8 C-4.67 5.69 -4.34 3.38 -4 1 C-2.68 0.67 -1.36 0.34 0 0 Z " fill="#BF8487" transform="translate(276,356)"/>
<path d="M0 0 C0.66 0.33 1.32 0.66 2 1 C1.9375 2.75 1.9375 2.75 1 5 C-1.24164322 6.59501537 -3.53566643 7.74543018 -6 9 C-4.47291037 5.56404834 -2.40072955 2.88087546 0 0 Z " fill="#C1898A" transform="translate(179,140)"/>
<path d="M0 0 C0.99 0 1.98 0 3 0 C3.33 1.98 3.66 3.96 4 6 C3.01 6 2.02 6 1 6 C0.67 4.02 0.34 2.04 0 0 Z " fill="#A65A5E" transform="translate(215,217)"/>
<path d="M0 0 C0.93065133 2.60582371 1.14917407 3.64198224 0.0625 6.25 C-0.4634375 7.11625 -0.4634375 7.11625 -1 8 C-1.66 7.67 -2.32 7.34 -3 7 C-3.33 7.66 -3.66 8.32 -4 9 C-4 8.01 -4 7.02 -4 6 C-3.34 6 -2.68 6 -2 6 C-1.855625 5.195625 -1.71125 4.39125 -1.5625 3.5625 C-1 1 -1 1 0 0 Z " fill="#B06C6B" transform="translate(166,158)"/>
<path d="M0 0 C3.37503669 1.1858237 5.64722731 2.27573689 8 5 C5.69 4.67 3.38 4.34 1 4 C0.67 2.68 0.34 1.36 0 0 Z " fill="#BE8582" transform="translate(300,125)"/>
<path d="M0 0 C1.98 0.495 1.98 0.495 4 1 C3.01 2.98 2.02 4.96 1 7 C0.34 6.67 -0.32 6.34 -1 6 C-0.67 4.02 -0.34 2.04 0 0 Z " fill="#984545" transform="translate(268,361)"/>
<path d="M0 0 C0.33 0 0.66 0 1 0 C1 3.3 1 6.6 1 10 C-1.39223697 7.60776303 -1.6758631 6.32240324 -2 3 C-1.34 2.01 -0.68 1.02 0 0 Z " fill="#740507" transform="translate(214,203)"/>
</svg>
